<svg id="Bold" fill="#5a4ae3" height="512" viewBox="0 0 24 24" width="512" xmlns="http://www.w3.org/2000/svg"><path d="m3.13 13.5c-.192 0-.384-.073-.53-.22l-1.94-1.94c-.419-.418-.66-.997-.66-1.59s.241-1.172.661-1.591l3.499-3.499c.836-.838 2.343-.839 3.181.001l1.509 1.509c.293.293.293.768 0 1.061s-.768.293-1.061 0l-1.51-1.51c-.281-.282-.778-.281-1.057-.001l-3.501 3.501c-.141.14-.221.333-.221.529s.08.389.22.528l1.94 1.941c.293.293.293.768 0 1.061-.146.147-.339.22-.53.22z"/><path d="m19.25 22c-.192 0-.384-.073-.53-.22l-5-5c-.293-.293-.293-.768 0-1.061s.768-.293 1.061 0l5 5c.293.293.293.768 0 1.061-.147.147-.339.22-.531.22z"/><path d="m17.25 24c-.192 0-.384-.073-.53-.22l-5-5c-.293-.293-.293-.768 0-1.061s.768-.293 1.061 0l5 5c.293.293.293.768 0 1.061-.147.147-.339.22-.531.22z"/><path d="m3.25 10c-.192 0-.384-.073-.53-.22l-1.31-1.31c-.293-.293-.293-.768 0-1.061s.768-.293 1.061 0l1.31 1.31c.293.293.293.768 0 1.061-.147.147-.339.22-.531.22z"/><path d="m5.25 8c-.192 0-.384-.073-.53-.22l-1.31-1.31c-.293-.293-.293-.768 0-1.061s.768-.293 1.061 0l1.31 1.31c.293.293.293.768 0 1.061-.147.147-.339.22-.531.22z"/><path d="m8 10.296c0-.735.213-1.439.615-2.035l1.368-2.224c-.53-.066-1.088.087-1.473.473l-6 5.999c-.329.328-.51.769-.51 1.241s.181.913.51 1.24l2.459 2.46c.452.452 1.043.731 1.649.785l1.837.201 1.055 1.054c.328.329.769.51 1.24.51s.912-.181 1.24-.51l3.5-3.499c.329-.328.51-.77.51-1.241 0-.266-.063-.519-.172-.75h-4.116c-2.047 0-3.712-1.662-3.712-3.704z"/><path d="m23.744 9.656-5.28-8.579c-.301-.51-.861-.827-1.464-.827s-1.163.317-1.456.815l-5.272 8.565c-.178.265-.272.581-.272.915 0 .94.768 1.705 1.712 1.705h10.576c.944 0 1.712-.765 1.712-1.705 0-.334-.094-.65-.256-.889zm-6.744 1.094c-.552 0-1-.448-1-1s.448-1 1-1 1 .448 1 1-.448 1-1 1zm1-4c0 .552-.447 1-1 1s-1-.448-1-1v-3c0-.552.447-1 1-1s1 .448 1 1z"/></svg>